<svg xmlns="http://www.w3.org/2000/svg" viewBox="0 0 512 512" role="img" aria-label="MLquick logo">
  <defs>
    <linearGradient id="bg" x1="0" y1="0" x2="1" y2="1">
      <stop offset="0%" stop-color="#F5F4ED"/>
      <stop offset="100%" stop-color="#E8E6DC"/>
    </linearGradient>
    <linearGradient id="accent" x1="0" y1="0" x2="1" y2="1">
      <stop offset="0%" stop-color="#D97757"/>
      <stop offset="100%" stop-color="#C96442"/>
    </linearGradient>
    <filter id="shadow" x="-20%" y="-20%" width="140%" height="140%">
      <feDropShadow dx="0" dy="10" stdDeviation="12" flood-color="#A74A2E" flood-opacity="0.22"/>
    </filter>
  </defs>

  <rect x="24" y="24" width="464" height="464" rx="108" fill="url(#bg)"/>
  <rect x="56" y="56" width="400" height="400" rx="88" fill="#FAF9F5" stroke="#E8E6DC" stroke-width="6"/>

  <g filter="url(#shadow)">
    <rect x="110" y="300" width="56" height="96" rx="16" fill="url(#accent)"/>
    <rect x="192" y="248" width="56" height="148" rx="16" fill="url(#accent)"/>
    <rect x="274" y="204" width="56" height="192" rx="16" fill="url(#accent)"/>
    <rect x="356" y="158" width="56" height="238" rx="16" fill="url(#accent)"/>
  </g>

  <g fill="none" stroke="#141413" stroke-width="18" stroke-linecap="round" stroke-linejoin="round">
    <path d="M122 246L215 205L302 227L388 146"/>
  </g>
  <g fill="#141413">
    <circle cx="122" cy="246" r="11"/>
    <circle cx="215" cy="205" r="11"/>
    <circle cx="302" cy="227" r="11"/>
    <circle cx="388" cy="146" r="11"/>
  </g>
</svg>
